<svg xmlns="http://www.w3.org/2000/svg" width="16" height="18.376" viewBox="0 0 16 18.376">
  <path id="flag" d="M15.88.618A.3.3,0,0,0,15.554.7a5.016,5.016,0,0,1-6.438.834C8.163.941,4.975-.8,2.381.431A.29.29,0,0,0,2.144.3H.367a.3.3,0,0,0-.3.3V18.08a.3.3,0,0,0,.3.3H2.144a.3.3,0,0,0,.3-.3V9.363c.76-.407,2.935-1.154,6.362.969a5.65,5.65,0,0,0,3.01.918A6.165,6.165,0,0,0,16,9.389a.3.3,0,0,0,.075-.2V.894A.3.3,0,0,0,15.88.618ZM1.848,17.783H.663V.894H1.848Zm13.63-8.711a4.987,4.987,0,0,1-6.363.755C8.17,9.242,5.022,7.52,2.441,8.7V1.066C3.2.659,5.376-.088,8.8,2.035a5.52,5.52,0,0,0,6.675-.47Zm0,0" transform="translate(-0.07 0)" fill="#f7f7f7"/>
</svg>
