<svg id="rss" xmlns="http://www.w3.org/2000/svg" width="24" height="24" viewBox="0 0 24 24">
  <path id="Path_25" data-name="Path 25" d="M3.563,367.125a3.563,3.563,0,0,0,0-7.125,3.563,3.563,0,0,0,0,7.125Zm0,0" transform="translate(0 -343.125)" fill="#e3e9f2"/>
  <path id="Path_26" data-name="Path 26" d="M11.344,194.859c0,.237-.02.47-.036.7h4.219c.011-.235.036-.466.036-.7A14.943,14.943,0,0,0,.7,180c-.237,0-.468.025-.7.036v4.219c.233-.016.466-.036.7-.036A10.72,10.72,0,0,1,11.344,194.859Zm0,0" transform="translate(0 -171.563)" fill="#e3e9f2"/>
  <path id="Path_27" data-name="Path 27" d="M.7,0C.466,0,.236.029,0,.036V4.254c.235-.009.466-.036.7-.036A19.167,19.167,0,0,1,19.781,23.3c0,.237-.027.468-.036.7h4.219c.007-.236.036-.466.036-.7A23.363,23.363,0,0,0,.7,0Zm0,0" fill="#e3e9f2"/>
</svg>
