<svg xmlns="http://www.w3.org/2000/svg" xmlns:xlink="http://www.w3.org/1999/xlink" width="17.659" height="18.519" viewBox="0 0 17.659 18.519">
  <defs>
    <clipPath id="clip-path">
      <rect width="17.659" height="18.519" fill="none"/>
    </clipPath>
  </defs>
  <g id="like" clip-path="url(#clip-path)">
    <path id="Path_13" data-name="Path 13" d="M23.8,12.59a2.329,2.329,0,0,0,.528-1.537,2.388,2.388,0,0,0-.494-1.332,2.1,2.1,0,0,0-.482-2.382,4.135,4.135,0,0,0-3.05-.744,11.708,11.708,0,0,0-1.869.244h0c-.19.035-.391.077-.6.124a6.872,6.872,0,0,1,.475-2.25c.532-1.65.5-2.912-.1-3.756A2.4,2.4,0,0,0,16.278,0a.946.946,0,0,0-.733.341,2.649,2.649,0,0,0-.319,1.847c-.5,1.371-1.907,4.732-3.1,5.666a.409.409,0,0,0-.061.054,4.168,4.168,0,0,0-.745,1.139,1.544,1.544,0,0,0-.752-.194H8.255a1.6,1.6,0,0,0-1.58,1.611v6.293a1.6,1.6,0,0,0,1.58,1.611h2.317a1.557,1.557,0,0,0,.912-.294l.893.108a37.53,37.53,0,0,0,5.064.283c.452.035.878.054,1.273.054a8.366,8.366,0,0,0,1.766-.163,3.3,3.3,0,0,0,2.359-1.495,2.411,2.411,0,0,0,.258-1.483,2.494,2.494,0,0,0,.862-2.01A2.66,2.66,0,0,0,23.8,12.59ZM8.255,17.322a.561.561,0,0,1-.555-.565v-6.3a.561.561,0,0,1,.555-.565h2.317a.561.561,0,0,1,.555.565v6.293a.561.561,0,0,1-.555.565H8.255Zm14.576-5.185a.528.528,0,0,0-.068.631,1.634,1.634,0,0,1,.175.647,1.558,1.558,0,0,1-.714,1.34.534.534,0,0,0-.175.6,1.392,1.392,0,0,1-.1,1,2.369,2.369,0,0,1-1.679.984,9.82,9.82,0,0,1-2.769.085h-.053a36.793,36.793,0,0,1-4.939-.275h0l-.384-.046a1.671,1.671,0,0,0,.034-.341v-6.3a1.668,1.668,0,0,0-.072-.48,3.259,3.259,0,0,1,.707-1.328c1.706-1.379,3.373-6.03,3.446-6.231a.5.5,0,0,0,.023-.259,2.465,2.465,0,0,1,.049-1.123,1.352,1.352,0,0,1,1.071.523c.387.546.372,1.522-.046,2.815-.638,1.971-.691,3.009-.186,3.466a.816.816,0,0,0,.828.151c.232-.054.452-.1.661-.136l.049-.012c1.166-.259,3.256-.418,3.981.256a1.131,1.131,0,0,1,.129,1.414.525.525,0,0,0,.091.674,1.476,1.476,0,0,1,.422.9A1.451,1.451,0,0,1,22.831,12.137Z" transform="translate(-6.675 0)" fill="#707070"/>
  </g>
</svg>
