<svg xmlns="http://www.w3.org/2000/svg" width="50" height="50" viewBox="0 0 50 50">
    <g id="linkedin_2_" data-name="linkedin (2)" transform="translate(0 0.001)">
        <circle id="Ellipse_7" data-name="Ellipse 7" cx="25" cy="25" r="25" transform="translate(0 -0.001)"
                fill="#007ab9"/>
        <g id="Groupe_4" data-name="Groupe 4" transform="translate(12.682 13.95)">
            <path id="Tracé_11" data-name="Tracé 11"
                  d="M51.334,37.528v8.558h-5.2V38.1c0-2-.751-3.374-2.635-3.374a2.835,2.835,0,0,0-2.668,1.814,3.251,3.251,0,0,0-.172,1.209v8.335h-5.2s.07-13.523,0-14.923h5.2v2.115c-.01.017-.025.033-.035.049h.035v-.049a5.209,5.209,0,0,1,4.688-2.465c3.423,0,5.988,2.133,5.988,6.716ZM30.012,23.969a2.6,2.6,0,1,0-.068,5.157h.034a2.6,2.6,0,1,0,.035-5.157ZM27.377,46.086h5.2V31.163h-5.2Z"
                  transform="translate(-27.068 -23.969)" fill="#f1f2f2"/>
        </g>
    </g>
</svg>
