<svg xmlns="http://www.w3.org/2000/svg" width="10.59" height="5.953" viewBox="0 0 10.59 5.953">
  <g id="left-quotes-sign" transform="translate(5.59 40.524) rotate(180)">
    <g id="Group_5" data-name="Group 5" transform="translate(-5 34.571)">
      <path id="Path_15" data-name="Path 15" d="M0,38.884c0,.906,1.09,1.64,2.436,1.64s2.436-.734,2.436-1.64-1.09-1.64-2.436-1.64a3.507,3.507,0,0,0-.789.09c.548-2.117,3-3.482.727-2.359A4.255,4.255,0,0,0,0,38.881Z" transform="translate(0 -34.571)" fill="#707070"/>
      <path id="Path_16" data-name="Path 16" d="M266.063,38.884c0,.906,1.091,1.64,2.436,1.64s2.436-.734,2.436-1.64-1.091-1.64-2.436-1.64a3.509,3.509,0,0,0-.789.09c.548-2.117,3-3.482.727-2.359a4.255,4.255,0,0,0-2.374,3.907Z" transform="translate(-260.345 -34.571)" fill="#707070"/>
    </g>
  </g>
</svg>
