<svg xmlns="http://www.w3.org/2000/svg" width="10.59" height="5.953" viewBox="0 0 10.59 5.953">
  <g id="Group_5" data-name="Group 5" transform="translate(0 0)">
    <path id="Path_15" data-name="Path 15" d="M0,1.64C0,.734,1.093,0,2.438,0S4.873.734,4.873,1.64s-1.09,1.64-2.436,1.64a3.507,3.507,0,0,1-.789-.09c.548,2.117,3,3.483.727,2.359A4.255,4.255,0,0,1,0,1.643Z" transform="translate(0 0)" fill="#707070"/>
    <path id="Path_16" data-name="Path 16" d="M0,1.64C0,.734,1.093,0,2.438,0S4.875.734,4.875,1.64s-1.091,1.64-2.436,1.64a3.509,3.509,0,0,1-.789-.09c.548,2.117,3,3.483.727,2.359A4.255,4.255,0,0,1,0,1.643Z" transform="translate(5.716 0)" fill="#707070"/>
  </g>
</svg>
