<svg xmlns="http://www.w3.org/2000/svg" width="24" height="24.104" viewBox="0 0 24 24.104">
  <g id="edit-button" transform="translate(-0.757)">
    <path id="Path_23" data-name="Path 23" d="M110.874.812l-.029-.026A3,3,0,0,0,106.6.978L95.868,12.729a1.036,1.036,0,0,0-.218.371l-1.262,3.784a1.439,1.439,0,0,0,1.363,1.894h0a1.433,1.433,0,0,0,.578-.122l3.654-1.6a1.035,1.035,0,0,0,.35-.251L111.066,5.056A3.007,3.007,0,0,0,110.874.812ZM96.806,16.184l.741-2.22.062-.068,1.4,1.282-.062.068ZM109.535,3.658l-9.125,9.99-1.4-1.282,9.125-9.99a.931.931,0,0,1,1.315-.059l.029.026A.932.932,0,0,1,109.535,3.658Z" transform="translate(-87.093)" fill="#e3e9f2"/>
    <path id="Path_24" data-name="Path 24" d="M21.7,39.6a1.036,1.036,0,0,0-1.036,1.036v8.8a2.639,2.639,0,0,1-2.636,2.636H5.465A2.639,2.639,0,0,1,2.83,49.433V36.974a2.639,2.639,0,0,1,2.636-2.636h9.091a1.036,1.036,0,0,0,0-2.073H5.465A4.714,4.714,0,0,0,.757,36.974V49.433a4.714,4.714,0,0,0,4.708,4.708H18.026a4.714,4.714,0,0,0,4.708-4.708v-8.8A1.036,1.036,0,0,0,21.7,39.6Z" transform="translate(0 -30.037)" fill="#e3e9f2"/>
  </g>
</svg>
