<svg xmlns="http://www.w3.org/2000/svg" width="50" height="50" viewBox="0 0 50 50">
    <g id="twitter" transform="translate(7.999 37)">
        <ellipse id="Ellipse_5" data-name="Ellipse 5" cx="25" cy="25" rx="25" ry="25" transform="translate(-7.999 -37)"
                 fill="#55acee"/>
        <g id="Groupe_3" data-name="Groupe 3" transform="translate(6.297 -20.558)">
            <path id="Tracé_7" data-name="Tracé 7"
                  d="M46.269,36.054a8.7,8.7,0,0,1-2.494.68,4.336,4.336,0,0,0,1.91-2.39,8.72,8.72,0,0,1-2.758,1.048,4.35,4.35,0,0,0-7.513,2.956,4.292,4.292,0,0,0,.113.985,12.348,12.348,0,0,1-8.951-4.515,4.311,4.311,0,0,0,1.344,5.768,4.329,4.329,0,0,1-1.967-.541c0,.018,0,.037,0,.055a4.328,4.328,0,0,0,3.484,4.236,4.381,4.381,0,0,1-1.961.075,4.344,4.344,0,0,0,4.056,3A8.8,8.8,0,0,1,25.1,49.2,12.361,12.361,0,0,0,44.114,38.849c0-.187,0-.374-.013-.559a8.781,8.781,0,0,0,2.167-2.236Z"
                  transform="translate(-25.103 -34.028)" fill="#f1f2f2"/>
        </g>
    </g>
</svg>
